<?xml version="1.0" encoding="UTF-8"?><svg id="Strand_forgrund" xmlns="http://www.w3.org/2000/svg" width="470" height="410" xmlns:xlink="http://www.w3.org/1999/xlink" viewBox="0 0 470 410"><defs><style>.cls-1,.cls-2,.cls-3,.cls-4,.cls-5,.cls-6,.cls-7,.cls-8,.cls-9,.cls-10,.cls-11,.cls-12,.cls-13,.cls-14,.cls-15,.cls-16,.cls-17{stroke:#000;stroke-miterlimit:10;}.cls-1,.cls-6,.cls-7,.cls-8,.cls-9,.cls-10,.cls-11,.cls-13,.cls-14,.cls-15,.cls-16{stroke-width:2px;}.cls-2{fill:url(#linear-gradient-11);}.cls-18{fill:url(#linear-gradient-8);}.cls-3{fill:url(#linear-gradient);stroke-width:.75px;}.cls-4{fill:url(#linear-gradient-2);}.cls-4,.cls-5{stroke-width:5px;}.cls-5{fill:url(#linear-gradient-7);}.cls-6{fill:url(#linear-gradient-4);}.cls-7{fill:url(#linear-gradient-3);}.cls-8{fill:url(#linear-gradient-9);}.cls-9{fill:url(#linear-gradient-6);}.cls-10{fill:url(#linear-gradient-5);}.cls-11{fill:#fff;}.cls-12{fill:#1a1a1a;}.cls-13{fill:url(#linear-gradient-16);}.cls-14{fill:url(#linear-gradient-13);}.cls-15{fill:url(#linear-gradient-10);}.cls-16{fill:url(#linear-gradient-12);}.cls-19{fill:url(#linear-gradient-14);}.cls-20{fill:url(#linear-gradient-15);}.cls-21{fill:url(#linear-gradient-17);}.cls-22{fill:url(#linear-gradient-18);}.cls-23{fill:#7ed600;}</style><linearGradient id="linear-gradient" x1="34.11" y1="215.13" x2="107.83" y2="215.13" gradientUnits="userSpaceOnUse"><stop offset="0" stop-color="#ccc"/><stop offset=".2" stop-color="#959595"/><stop offset=".42" stop-color="#616161"/><stop offset=".52" stop-color="#4d4d4d"/><stop offset=".61" stop-color="#505050"/><stop offset=".69" stop-color="#5c5c5c"/><stop offset=".77" stop-color="#707070"/><stop offset=".86" stop-color="#8b8b8b"/><stop offset=".94" stop-color="#aeaeae"/><stop offset="1" stop-color="#ccc"/></linearGradient><linearGradient id="linear-gradient-2" x1="36.78" y1="334.64" x2="173.76" y2="334.64" gradientUnits="userSpaceOnUse"><stop offset="0" stop-color="#6e6e6e"/><stop offset=".03" stop-color="#686868"/><stop offset=".23" stop-color="#424242"/><stop offset=".43" stop-color="#252525"/><stop offset=".62" stop-color="#101010"/><stop offset=".82" stop-color="#040404"/><stop offset="1" stop-color="#000"/></linearGradient><linearGradient id="linear-gradient-3" x1="22.33" y1="219.32" x2="441.63" y2="219.32" gradientUnits="userSpaceOnUse"><stop offset="0" stop-color="#ff815d"/><stop offset=".11" stop-color="#fd7d59"/><stop offset=".19" stop-color="#f9744f"/><stop offset=".28" stop-color="#f3643d"/><stop offset=".36" stop-color="#ea4d25"/><stop offset=".43" stop-color="#df3005"/><stop offset=".44" stop-color="#dd2b00"/><stop offset=".48" stop-color="#d82900"/><stop offset=".53" stop-color="#ca2403"/><stop offset=".57" stop-color="#b31b07"/><stop offset=".62" stop-color="#94100c"/><stop offset=".67" stop-color="#6b0113"/><stop offset=".68" stop-color="#680014"/></linearGradient><linearGradient id="linear-gradient-4" x1="164.41" y1="57.28" x2="271.93" y2="57.28" gradientUnits="userSpaceOnUse"><stop offset="0" stop-color="#ff815d"/><stop offset=".08" stop-color="#f66b45"/><stop offset=".2" stop-color="#eb4f27"/><stop offset=".33" stop-color="#e33b11"/><stop offset=".44" stop-color="#de2f04"/><stop offset=".55" stop-color="#dd2b00"/><stop offset=".79" stop-color="#de2900"/><stop offset=".88" stop-color="#e22204"/><stop offset=".94" stop-color="#e91609"/><stop offset=".99" stop-color="#f40511"/><stop offset="1" stop-color="#f80014"/></linearGradient><linearGradient id="linear-gradient-5" x1="175.56" y1="258.62" x2="277.71" y2="317.6" gradientUnits="userSpaceOnUse"><stop offset=".13" stop-color="#ccc"/><stop offset=".37" stop-color="#959595"/><stop offset=".63" stop-color="#616161"/><stop offset=".75" stop-color="#4d4d4d"/></linearGradient><linearGradient id="linear-gradient-6" x1="82.92" y1="335.19" x2="128.84" y2="335.19" xlink:href="#linear-gradient-5"/><linearGradient id="linear-gradient-7" x1="323.65" y1="328.47" x2="457.29" y2="328.47" xlink:href="#linear-gradient-2"/><linearGradient id="linear-gradient-8" x1="-264.28" y1="-39.5" x2="-220.82" y2="-39.5" gradientTransform="translate(448.4 181.82) rotate(21.44)" xlink:href="#linear-gradient"/><linearGradient id="linear-gradient-9" x1="105.8" y1="317.19" x2="205.05" y2="317.19" gradientUnits="userSpaceOnUse"><stop offset=".13" stop-color="#ccc"/><stop offset=".18" stop-color="#c3c3c3"/><stop offset=".26" stop-color="#aaa"/><stop offset=".37" stop-color="#838383"/><stop offset=".49" stop-color="#4d4d4d"/><stop offset=".49" stop-color="#4d4d4d"/><stop offset=".6" stop-color="#505050"/><stop offset=".68" stop-color="#5a5a5a"/><stop offset=".77" stop-color="#6b6b6b"/><stop offset=".84" stop-color="#838383"/><stop offset=".92" stop-color="#a2a2a2"/><stop offset=".99" stop-color="#c8c8c8"/><stop offset="1" stop-color="#ccc"/></linearGradient><linearGradient id="linear-gradient-10" x1="201.06" y1="288.15" x2="263.93" y2="288.15" gradientUnits="userSpaceOnUse"><stop offset="0" stop-color="#a0e900"/><stop offset=".08" stop-color="#95e100"/><stop offset=".22" stop-color="#7acf00"/><stop offset=".4" stop-color="#4eb000"/><stop offset=".43" stop-color="#45aa00"/><stop offset="1" stop-color="#21d400"/></linearGradient><linearGradient id="linear-gradient-11" x1="92.3" y1="253.34" x2="209.06" y2="253.34" gradientUnits="userSpaceOnUse"><stop offset=".13" stop-color="#ccc"/><stop offset=".36" stop-color="#959595"/><stop offset=".61" stop-color="#616161"/><stop offset=".73" stop-color="#4d4d4d"/></linearGradient><linearGradient id="linear-gradient-12" x1="159.08" y1="216.08" x2="235.61" y2="216.08" gradientUnits="userSpaceOnUse"><stop offset="0" stop-color="#ff815d"/><stop offset=".2" stop-color="#f05b34"/><stop offset=".41" stop-color="#e2380e"/><stop offset=".52" stop-color="#dd2b00"/><stop offset=".67" stop-color="#e22204"/><stop offset=".91" stop-color="#f10a0f"/><stop offset="1" stop-color="#f80014"/></linearGradient><linearGradient id="linear-gradient-13" x1="157.34" y1="134.8" x2="216.73" y2="134.8" xlink:href="#linear-gradient-4"/><linearGradient id="linear-gradient-14" x1="332.7" y1="-52.55" x2="342.14" y2="-52.55" gradientTransform="translate(-89.3 167.96) rotate(4.97) scale(1.07 .86) skewX(8.89)" xlink:href="#linear-gradient-4"/><linearGradient id="linear-gradient-15" x1="184.71" y1="132.07" x2="264.43" y2="132.07" xlink:href="#linear-gradient-4"/><linearGradient id="linear-gradient-16" x1="365.46" y1="329.01" x2="415.06" y2="329.01" gradientTransform="translate(501.52 -169.16) rotate(62.46)" xlink:href="#linear-gradient-5"/><linearGradient id="linear-gradient-17" x1="-137.63" y1="103.88" x2="-3.88" y2="103.88" gradientTransform="translate(448.4 181.82) rotate(21.44)" gradientUnits="userSpaceOnUse"><stop offset="0" stop-color="#ccc"/><stop offset=".08" stop-color="#c3c3c3"/><stop offset=".22" stop-color="#aaa"/><stop offset=".39" stop-color="#838383"/><stop offset=".58" stop-color="#4d4d4d"/><stop offset=".58" stop-color="#4d4d4d"/><stop offset=".67" stop-color="#505050"/><stop offset=".74" stop-color="#5a5a5a"/><stop offset=".81" stop-color="#6b6b6b"/><stop offset=".87" stop-color="#838383"/><stop offset=".93" stop-color="#a2a2a2"/><stop offset=".99" stop-color="#c8c8c8"/><stop offset="1" stop-color="#ccc"/></linearGradient><linearGradient id="linear-gradient-18" x1="411.63" y1="347.75" x2="431.6" y2="347.75" xlink:href="#linear-gradient-5"/></defs><path class="cls-3" d="M91.12,220.12l-24.03-5.54c-5.82-1.77-9.86-2.27-21.22-4.99l-11.76-3.12c0-3.02,36.54,4.38,39.53,4.38l16.51,2.47c2.99,0,16.02,7.09,16.02,10.11l1.66,1.11c-5.51-1.15-12.65-3.89-16.71-4.41Z"/><path class="cls-4" d="M169,359.86c-13.82,35.46-53.56,52.91-88.76,38.98-35.2-13.93-52.52-53.96-38.7-89.41s53.56-52.91,88.76-38.98c35.2,13.93,52.52,53.96,38.7,89.41Z"/><path class="cls-11" d="M148.46,351.73c-9.37,24.03-36.3,35.86-60.15,26.42s-35.59-36.57-26.23-60.6c9.37-24.03,36.3-35.86,60.15-26.42,23.85,9.44,35.59,36.57,26.23,60.6Z"/><path class="cls-7" d="M22.33,205.29l124.54-3.83c.49-.02,67.75-1.69,82.7-1.8,1.92-.01,3.83-.26,5.7-.73l73.65-18.68-6.3-14.54,16.45-3.87c1.2-.28,2.45.26,3.06,1.34l19.3,34.03c.49.87,1.36,1.45,2.34,1.58l34.04,4.4c9.76,1.26,19.18,4.4,27.76,9.24l36.06,20.34s.01.06-.02.05l-43.81-7.06c-7.02-1.32-14.24-1.74-20.57-2.42-1-.11-14.92-1.65-16.49-1.62-10.21.2-9.1.24-14.51,2.81l-13.28,8.42-40.65,43.12c-.87.93-2.29,1.05-3.31.29l-17.61-16.28c-4.7-4.34-10.15-7.78-16.08-10.12-9.16-3.63-21.93-8.51-22.63-8.3l-42.41,17.4-97.04-44.57c-.6-.28-4.01-1.63-4.67-1.7l-29.68-3.93c-.24-.03-36.76-3.58-36.53-3.59Z"/><path class="cls-6" d="M271.92,46.88l-29.83-24.98c-11.09-9.29-25.83-12.86-39.91-9.68l-7.67,1.74c-11.35,2.57-20.77,10.48-25.32,21.27l-3.07,7.29c-.3,1.73-.64,3.49-.95,5.29-2,11.31-.03,22.97,5.54,32.99l.36.65c.53.95,2.3,3.22,3.16,3.89,2.4,1.86,2.82,2.1,5.39,2.76l64.06,14.77c3.12.79,9.68,1.26,12.71-1.19l6.95-9.88c1.66-4.48-.56-9.47-4.98-11.2l-44.19-17.3,5.58-22.96,35.57,3.45c.61.09,17.07,3.51,16.6,3.11Z"/><path class="cls-10" d="M288.74,276.63l-16.02,37.88s-13.39,20.57-34.57,23.27c-21.17,2.7-44.73-12.63-44.73-12.63-10.11-8.91-15.38-14.37-19.32-29.99-4.05-16.08-.34-17.49,1.61-20.36l15.48-16.16c4.28-4.28,9.54-7.42,15.31-9.15l27.84-8.34c.59-.18,9.48,3.14,17.98,6.45,10.13,3.94,19.23,10.18,26.57,18.23l9.84,10.79Z"/><path d="M283.04,157.79c-1.67-.95-3.62-1.93-5.41-1.24-1.92.74-2.71,3.28-1.97,5.21s2.64,3.21,4.62,3.73c1.03.27,2.19.35,3.1-.2.49-.29.87-.74,1.17-1.23.61-.95.97-2.12.73-3.23s-1.21-2.09-2.34-2.09"/><path d="M283.8,156.49c-2.26-1.28-5.2-2.54-7.61-.86-1.93,1.34-2.71,3.94-2.09,6.18.67,2.39,2.74,4.04,4.98,4.88,1.2.45,2.56.67,3.82.39,1.44-.31,2.53-1.41,3.19-2.67.71-1.36,1.05-3.02.47-4.49s-1.94-2.61-3.61-2.68c-.78-.03-1.54.71-1.5,1.5.04.84.66,1.47,1.5,1.5.3.01.06,0,0-.01,0,0,.4.13.2.05-.17-.07.37.25.24.15s.35.44.17.17c.05.08.09.16.14.23.16.24-.01-.16.07.14.02.09.05.17.07.26,0,.04.03.29.01.08.02.21.02.43-.02.64.03-.21-.02.05-.03.08-.03.1-.05.21-.08.31-.09.3-.08.27-.22.54-.11.21-.24.42-.37.62-.15.21.11-.13-.05.07-.07.08-.14.16-.21.23-.04.04-.29.24-.11.11-.08.06-.18.11-.27.16.21-.11-.56.15-.29.1-.21.03-.43.03-.64.02-.11,0-.22-.01-.32-.02.21.03-.06-.01-.08-.02-.44-.09-.86-.21-1.28-.36-.27-.1-.1-.03-.04,0-.11-.05-.22-.1-.32-.15-.17-.08-.34-.17-.5-.27-.18-.11-.36-.22-.53-.34-.04-.02-.23-.17-.03-.02-.11-.09-.22-.18-.32-.27-.14-.13-.27-.26-.39-.39-.06-.07-.12-.14-.18-.21.16.19.01.01-.02-.03-.12-.17-.23-.35-.33-.53-.04-.08-.08-.17-.12-.25-.07-.16.04.17-.03-.08-.05-.18-.1-.36-.15-.54-.01-.05-.04-.31-.02-.11.02.24,0-.17,0-.17,0-.17,0-.33,0-.5,0-.07.04-.29-.01.03.02-.12.04-.25.07-.37.04-.16.09-.32.14-.48.08-.26.01-.04-.01.02.04-.07.07-.15.11-.22s.08-.14.12-.21c0,0,.22-.33.09-.15-.11.16.04-.05.07-.08.07-.07.14-.15.21-.21,0,0,.31-.24.12-.11-.17.12.11-.06.15-.08.07-.04.14-.08.21-.11-.32.17.09-.02.17-.05.1-.03.21-.05.31-.07-.24.04.22,0,.23,0,.11,0,.21,0,.32,0,.44.02-.2-.06.24.03,1.1.24,1.85.65,2.86,1.22.68.39,1.67.18,2.05-.54s.19-1.64-.54-2.05h0Z"/><path d="M205.81,180.59c1.93,0,1.93-3,0-3s-1.93,3,0,3h0Z"/><ellipse class="cls-9" cx="105.88" cy="335.19" rx="22.96" ry="23.12"/><path class="cls-5" d="M452.65,353.07c-13.49,34.59-52.26,51.62-86.6,38.03s-51.24-52.65-37.76-87.24,52.26-51.62,86.6-38.03c34.34,13.59,51.24,52.65,37.76,87.24Z"/><ellipse class="cls-17" cx="105.92" cy="335.19" rx="11.4" ry="11.48"/><path d="M306.71,170.97c1.71,1.77,2.95,4,3.57,6.38.21.81.34,1.72-.05,2.46-.41.75-1.25,1.13-2.03,1.46-3.4,1.42-6.81,2.85-10.21,4.27-.3.13-.62.26-.95.25-.88-.01-1.45-.92-1.84-1.72-.92-1.86-1.83-3.71-2.75-5.57-.19-.38-.38-.79-.35-1.21.06-.77.8-1.28,1.47-1.65,3.93-2.19,8.08-3.99,12.36-5.36"/><path d="M305.65,172.04c.9.95,1.64,2.01,2.24,3.18.28.55.51,1.11.7,1.69s.51,1.33.39,1.93c-.18.94-2.08,1.38-2.83,1.69-1.48.62-2.96,1.24-4.45,1.86s-2.94,1.26-4.42,1.85c-.28.11-.1.15-.28-.05-.13-.16-.23-.34-.33-.52-.39-.71-.73-1.46-1.09-2.18-.33-.67-.66-1.34-.99-2.01-.15-.31-.31-.62-.46-.93-.11-.23-.55-.81-.51-1.04s.71-.54,1.01-.7c.69-.38,1.39-.75,2.09-1.1,3.1-1.57,6.31-2.87,9.62-3.94,1.83-.59,1.05-3.49-.8-2.89-3.76,1.21-7.43,2.73-10.93,4.55-1.53.79-3.58,1.61-3.94,3.5-.19.97.24,1.83.65,2.67.46.93.92,1.86,1.37,2.78.74,1.51,1.4,3.64,2.94,4.54,1.74,1.02,3.77-.33,5.39-1.01,1.98-.83,3.95-1.65,5.93-2.48,1.54-.64,3.46-1.15,4.44-2.62,1.15-1.74.4-4.04-.33-5.79-.78-1.89-1.89-3.59-3.29-5.08-1.33-1.41-3.44.72-2.12,2.12h0Z"/><path d="M277.15,153.96h0c.39.05.77.1,1.16.15h0c.23.29.46.59.69.89h0c.02.12.04.26.05.39h0c-.02.12-.04.25-.05.39h0c-.05.11-.1.23-.15.34h0c-.08.09-.16.19-.23.29h0c-.1.07-.2.15-.3.22.06-.04.13-.08.2-.11l-.36.15c.1-.04.21-.07.32-.09l-.4.05c.14-.02.28-.01.42,0l-.4-.05c.2.03.39.08.57.14.2.06.4.07.6.03.2,0,.39-.07.56-.18.17-.09.32-.22.42-.39.13-.14.22-.31.27-.51l.05-.4c0-.27-.07-.52-.2-.76l-.23-.3c-.19-.19-.41-.31-.66-.39-.18-.06-.36-.11-.54-.14-.21-.03-.43-.07-.65-.07s-.42.04-.63.07c-.08.01-.17.03-.25.06-.18.07-.38.14-.55.25-.02.01-.03.02-.05.04-.31.22-.26.17-.43.4-.05.05-.09.1-.12.16l-.15.36c-.02.08-.05.33-.06.42,0,.14.01.28.06.41l.15.36c.09.17.22.32.39.42.05.04.1.08.16.12l.36.15.4.05c.14,0,.28-.02.41-.06.2-.05.37-.14.51-.27.16-.11.29-.25.39-.42.11-.17.17-.36.18-.56.04-.2.04-.4-.03-.6l-.15-.36c-.13-.23-.31-.4-.54-.54-.35-.19-.76-.27-1.16-.15h0Z"/><path class="cls-18" d="M255.78,43.77c1.91,12.08,1.89,25.26-5.25,35.42-6.6.86-13.01-2.46-18.54-6.2s-10.91-8.08-17.37-9.7c2.08-7.25,2.84-13.9,4.96-21.29.17-.59.13-1.31.62-1.68.36-.28.86-.29,1.31-.29,11.94,0,22.61,1.06,34.26,3.73"/><path d="M254.69,44.07c1.82,11.66,1.85,24.48-5.14,34.55l.97-.56c-6.91.81-13.17-2.76-18.67-6.52s-10.57-7.68-16.93-9.34l.79,1.38c1.3-4.59,2.17-9.28,3.16-13.95.53-2.47,1.21-4.89,1.79-7.34.11-.46.05-.89.5-1.13.37-.2,1.37,0,1.79,0,1.19,0,2.38.03,3.57.06,9.76.26,19.43,1.46,28.95,3.63,1.41.32,2.01-1.85.6-2.17-8.03-1.83-16.19-3.01-24.42-3.49-2.02-.12-4.05-.2-6.07-.24-1.03-.02-2.07-.04-3.1-.04-.84,0-1.77-.1-2.55.28-1.42.69-1.53,2.8-1.88,4.15-.52,1.96-.97,3.94-1.39,5.93-.97,4.59-1.83,9.2-3.12,13.72-.16.58.2,1.23.79,1.38,10.51,2.74,17.69,12.05,28.08,15.15,2.48.74,5.11,1.1,7.69.84,1.3-.13,1.65-.92,2.31-1.98.72-1.15,1.36-2.34,1.92-3.57,2.06-4.49,3.11-9.33,3.49-14.24.43-5.72-.08-11.46-.96-17.11-.22-1.43-2.39-.82-2.17.6h0Z"/><path class="cls-8" d="M105.88,335.19c1.58,4.37,27.25-4.36,54.71-14.45s47.82-19.15,44-21.75c-5.28-3.61-22.28,3.38-49.74,13.46s-50.55,18.37-48.97,22.74Z"/><path class="cls-1" d="M246.05,322.32l-21.62,5.81c-1.49.4-3.03-.5-3.42-2l-.2-.75c-.4-1.5.49-3.05,1.98-3.45l21.62-5.81c1.49-.4,3.03.5,3.42,2l.2.75c.4,1.5-.49,3.05-1.98,3.45Z"/><path class="cls-15" d="M201.06,253.66l15.23,66.68c.37,1.63,2.01,2.62,3.61,2.18l40.21-11.1c2.94-.81,4.62-4.69,3.43-7.52h0c-1.73-4.17-4.68-3.99-8.22-4.13l-17.46.38c-1.71.16-3.19-1.19-3.21-2.92l-.42-42.42-33.18-1.15Z"/><path d="M103.99,288.11c.07,7.83-.22,15.67.09,23.5.07,1.92,3.07,1.93,3,0-.3-7.83-.01-15.67-.09-23.5-.02-1.93-3.02-1.93-3,0h0Z"/><path d="M105.16,359.26c-.12,7.13-.09,14.26.09,21.39.05,1.93,3.05,1.93,3,0-.19-7.13-.22-14.26-.09-21.39.03-1.93-2.97-1.93-3,0h0Z"/><path d="M82.26,333.1c-7.74.88-15.51,1.43-23.3,1.63-1.93.05-1.93,3.05,0,3,7.79-.2,15.56-.75,23.3-1.63,1.9-.22,1.92-3.22,0-3h0Z"/><path d="M129.59,337.65c7.17,0,14.34-.13,21.51,0,1.93.04,1.93-2.96,0-3-7.17-.13-14.34,0-21.51,0-1.93,0-1.93,3,0,3h0Z"/><path d="M118.94,315.16c1.17-1.73,2.4-3.45,3.43-5.27s2.02-3.9,3.03-5.85c1.39-2.71,2.78-5.43,4.15-8.15.87-1.72-1.72-3.24-2.59-1.51-1.38,2.72-2.76,5.44-4.15,8.15-1,1.95-1.96,3.94-3.03,5.85s-2.26,3.54-3.43,5.27c-1.08,1.61,1.52,3.11,2.59,1.51h0Z"/><path d="M125.7,322.67c6.9-2.92,13.74-5.97,20.58-9.03.75-.33.91-1.4.54-2.05-.44-.77-1.32-.87-2.05-.54-6.84,3.06-13.68,6.12-20.58,9.03-.75.32-.9,1.41-.54,2.05.44.78,1.31.85,2.05.54h0Z"/><path d="M125.9,347.9c6.97,2.35,13.76,5.16,20.68,7.63,1.82.65,2.61-2.25.8-2.89-6.92-2.47-13.71-5.28-20.68-7.63-1.83-.62-2.62,2.28-.8,2.89h0Z"/><path d="M118.75,354.85c4.09,5.96,7.97,12.07,11.63,18.31.98,1.66,3.57.16,2.59-1.51-3.66-6.24-7.54-12.34-11.63-18.31-1.09-1.58-3.69-.08-2.59,1.51h0Z"/><path d="M93.33,355.48c-3.88,6.22-7.47,12.61-10.75,19.16-.86,1.72,1.73,3.24,2.59,1.51,3.28-6.55,6.87-12.95,10.75-19.16,1.03-1.64-1.57-3.15-2.59-1.51h0Z"/><path d="M66.89,359.26c6.61-3.25,13.08-6.74,19.79-9.78.74-.34.91-1.4.54-2.05-.43-.76-1.32-.87-2.05-.54-6.71,3.04-13.18,6.53-19.79,9.78-1.73.85-.21,3.44,1.51,2.59h0Z"/><path d="M84.97,322.59c-7.2-2.23-14.16-5.11-21.11-8-.75-.31-1.64.34-1.85,1.05-.25.86.3,1.54,1.05,1.85,6.95,2.89,13.91,5.77,21.11,8,1.85.57,2.64-2.32.8-2.89h0Z"/><path d="M93.59,314.77c-4.26-6.31-8.49-12.63-12.76-18.94-1.08-1.59-3.68-.09-2.59,1.51,4.26,6.31,8.5,12.63,12.76,18.94,1.08,1.59,3.68.09,2.59-1.51h0Z"/><path class="cls-2" d="M92.3,214.09l116.76,78.5-4.8-24.88-43.17-26.55c-9.89-7.3-23.17-12.04-35.09-16.91l-33.71-10.15Z"/><path class="cls-16" d="M160.47,179.35l-1.22,17.24c-.78,4.83,1.15,9.71,5.05,12.7l36.76,20.83c2.1,1.38,0,0,4.75,3.23l-2.73,20.01,29.42,1.39,3.02-25.71c.46-2.59-.77-4.95-2.46-6.98-2.45-2.93-6.36-6.04-6.36-6.04l-19.9-15.34c.49-.77.7-1.67.89-2.21l1.04-13.7c.1-1.51-.49-2.99-1.62-4.01-.79-.72-1.53-.86-2.27-.9l-42.16-2.46c-1.15-.07-2.14.8-2.22,1.94Z"/><path class="cls-14" d="M199.33,92.06l-12.21-2.17c-.5-.08-1.62.52-3.14.69-4.46.51-8.38,5.07-13.03,9.7l-1.05,1.48c-5.19,7.32-8.3,15.93-8.98,24.9l-3.56,46.5c-.14,1.82,1.23,3.41,3.04,3.52l46.73,3.03c2.19-.14,3.24-1.69,3.67-3.35l2.36-15.35,3.59-52.29c.01-6.43-1.2-10.92-7.99-14.51l-9.41-2.16Z"/><path class="cls-19" d="M264.24,146.93c2.58.41,5.15,1.34,7.42,2.67-1.04,2.88-2.82,5.98-2.94,9.45-.02.43-.09.92-.56,1.06-.37.11-.84-.06-1.25-.23-1.52-.65-2.99-1.4-4.4-2.25"/><path d="M263.84,148.37c2.5.41,4.87,1.25,7.06,2.52l-.69-1.69c-.91,2.47-2.15,4.82-2.69,7.41-.14.69-.24,1.39-.29,2.09,0,.04-.04.51-.03.51-.07-.01.33-.45.35-.46.42-.04.51-.08.28-.12-.07-.02-.14-.04-.21-.07-.1-.04-.2-.08-.3-.12-1.4-.59-2.75-1.32-4.06-2.1-1.66-.99-3.17,1.6-1.51,2.59,1.55.93,3.18,1.78,4.86,2.44.86.34,1.79.4,2.58-.12.84-.56.98-1.5,1.03-2.42.19-3.12,1.82-5.94,2.88-8.82.23-.61-.15-1.38-.69-1.69-2.4-1.39-5.04-2.37-7.78-2.83-.8-.13-1.61.21-1.85,1.05-.2.72.24,1.71,1.05,1.85h0Z"/><path class="cls-20" d="M190.13,103.88c13.52-3.5,17.45,1.61,27.76,11.58,3.51,3.39,11.81,9.57,17.39,14.56,5.19,4.64,21.98,7.84,26.63,13.02,1,1.11,2.53,2.18,2.52,3.68,0,4.2-1.03,8.16-2.95,12.76-.4.97-1.25,2-2.29,1.87-5.82-.74-8.89-2.55-12.92-4.33-5.17-2.29-29.09-8.86-33.16-11.61-14.43-9.75-11.42-7.67-23.17-14.57-1.45-.85-5.44-7.35-5.24-9.02"/><path d="M190.33,104.6c3.39-.86,6.99-1.48,10.47-.78,2.84.57,5.34,2.02,7.59,3.8,2.87,2.28,5.44,4.94,8.07,7.49,2.45,2.39,5.1,4.55,7.76,6.7,3.17,2.56,6.36,5.1,9.44,7.77,2.14,1.86,4.33,3.21,6.94,4.34,5.88,2.56,12.3,4.15,17.86,7.4,1.04.61,2.02,1.29,2.86,2.16.63.66,1.39,1.28,1.92,2.03.66.95.46,2.17.37,3.27-.2,2.36-.75,4.67-1.49,6.92-.35,1.05-.73,2.09-1.15,3.1-.24.57-.56,1.38-1.17,1.67-.66.32-1.7-.05-2.39-.18-3.76-.71-7.1-2.33-10.57-3.87-1.76-.78-3.6-1.38-5.43-1.99-5.6-1.85-11.25-3.55-16.85-5.39-2.54-.84-5.09-1.69-7.58-2.67-2.2-.87-3.98-1.98-5.95-3.31-4.12-2.78-8.22-5.6-12.51-8.12-2.19-1.29-4.4-2.56-6.6-3.84-1.26-.74-2.13-1.32-3-2.5s-1.65-2.45-2.33-3.76c-.46-.87-1.18-2.03-1.12-3.05.06-.96-1.44-.96-1.5,0-.07,1.09.54,2.25,1.01,3.19.67,1.37,1.46,2.69,2.34,3.94.64.92,1.32,1.9,2.26,2.54,1.41.96,2.98,1.75,4.46,2.6,3.91,2.27,7.76,4.61,11.52,7.13,1.63,1.09,3.26,2.19,4.88,3.28,1.13.76,2.22,1.59,3.45,2.2,2.08,1.02,4.29,1.78,6.47,2.54,6.04,2.11,12.17,3.94,18.26,5.9,2.22.71,4.45,1.41,6.62,2.26,3.1,1.21,5.99,2.85,9.21,3.77,1.05.3,2.12.53,3.2.71.92.15,1.88.41,2.75-.02,1.82-.89,2.42-3.57,3.02-5.31.75-2.18,1.3-4.42,1.58-6.71.24-1.94.52-3.89-.8-5.5-4.12-5.03-10.54-7-16.43-9.2-3.13-1.17-6.33-2.29-9.28-3.88-3.13-1.69-5.68-4.39-8.42-6.63-3.18-2.59-6.42-5.12-9.53-7.79-2.87-2.47-5.46-5.25-8.24-7.81-2.31-2.13-4.78-4.22-7.66-5.52s-5.85-1.66-8.91-1.39c-1.96.17-3.9.56-5.8,1.04-.93.24-.54,1.68.4,1.45h0Z"/><path class="cls-12" d="M310.65,173.65l-17.54,7.93c-2.46,1.11-4.14-1.64-5.25-4.12h0c-1.1-2.48-6.95-11.05-4.49-12.16l6.97-11.38c1.92-3.14,5.99-4.13,9.13-2.25,5.61,3.36,12.9,9.01,13.63,10.64l2.27,3.39c1.1,2.48-2.27,6.84-4.73,7.95Z"/><path class="cls-23" d="M271.47,149.46c1.79-1.7,4.44-2.05,6.9-2.01,3.7.06,7.4.83,10.82,2.26.86.36,1.73.78,2.31,1.51,1.22,1.52.77,3.74.27,5.62-.47,1.76-.95,3.52-1.42,5.28-.3,1.12-.62,2.26-1.32,3.18s-1.91,1.53-3.01,1.21c-1.6-.47-2.1-2.62-1.56-4.21.41-1.21,1.26-2.4.96-3.64-.22-.92-1.03-1.57-1.82-2.09-1.62-1.07-3.37-1.93-5.21-2.56-.4-.13-.83-.26-1.23-.15-.71.2-1.02,1.02-1.27,1.72-.5,1.42-1.19,2.84-2.35,3.79s-2.92,1.3-4.18.49"/><path d="M272.53,150.52c1.49-1.33,3.58-1.57,5.5-1.57,2.45,0,4.89.36,7.25,1.01,1.65.45,4.91,1.06,5.41,3,.23.91,0,1.93-.2,2.81-.3,1.25-.66,2.48-.99,3.72-.29,1.08-.55,2.17-.89,3.24-.26.83-.66,1.95-1.56,2.28-.71.26-1.1-.19-1.25-.85-.2-.86.16-1.63.49-2.41.88-2.06.94-4.08-.87-5.66-1.63-1.42-3.74-2.4-5.73-3.18-1.07-.42-2.26-.85-3.37-.3-1.01.5-1.46,1.44-1.84,2.45-.6,1.61-2.14,4.77-4.38,3.52-1.69-.94-3.2,1.65-1.51,2.59,2.23,1.25,4.96.54,6.62-1.32.84-.94,1.41-2.03,1.87-3.2.13-.32.25-1.15.56-1.34.01,0-.35.13.04.07.31-.05.92.31,1.21.43,1.26.49,2.47,1.13,3.62,1.86s1.71,1.23,1.18,2.6c-.41,1.06-.9,1.99-.94,3.16-.04,1.09.25,2.23.89,3.12,1.48,2.03,4.27,1.92,6.01.29,1.89-1.76,2.27-4.77,2.9-7.14s1.72-5.17.99-7.68c-.77-2.67-3.5-3.65-5.89-4.46-3.08-1.04-6.38-1.6-9.63-1.59-2.77,0-5.51.56-7.62,2.45-1.44,1.29.69,3.41,2.12,2.12h0Z"/><path class="cls-11" d="M435.39,346.78c-9.74,24.99-37.75,37.29-62.56,27.48-24.81-9.82-37.02-38.03-27.27-63.02,9.74-24.99,37.75-37.29,62.56-27.48s37.02,38.03,27.27,63.02Z"/><ellipse class="cls-13" cx="390.26" cy="329.01" rx="24.34" ry="24.92" transform="translate(-81.92 522.9) rotate(-62.46)"/><ellipse class="cls-17" cx="389.65" cy="328.47" rx="10.88" ry="10.96"/><path class="cls-21" d="M299.19,186.35c6.66,11.35,13.32,22.69,19.98,34.04,3.57,6.08,7.14,12.17,10.72,18.25,6.08,10.36,12.17,20.72,17.93,31.27,9.17,16.79,17.55,34.08,28.18,49.98,1.55,2.32,3.29,4.73,5.86,5.78s6.16.07,6.89-2.63c.51-1.88-.47-3.81-1.42-5.5-14.86-26.52-29.94-52.91-45.01-79.3-1.85-3.23-3.69-6.47-5.54-9.7-3.68-6.44-7.35-12.87-11.05-19.29-2.36-4.09-4.73-8.18-7.1-12.27-3.23-5.58-6.47-11.16-9.7-16.74-3.18,1.99-6.48,3.79-9.88,5.39"/><path d="M297.89,187.11c11.63,19.81,23.29,39.61,34.89,59.44,5.66,9.68,11.24,19.41,16.54,29.3,5.15,9.61,10.14,19.31,15.54,28.79,2.72,4.76,5.54,9.47,8.54,14.06,2.27,3.48,4.9,8.06,9.4,8.79,4.06.66,8.2-2.15,7.47-6.57-.44-2.65-2.19-5.06-3.48-7.36-1.42-2.52-2.83-5.04-4.25-7.56-11.27-20.01-22.64-39.95-34.03-59.89-11.31-19.8-22.64-39.58-34.08-59.31-1.41-2.43-2.82-4.87-4.23-7.3-.4-.69-1.36-.97-2.05-.54-3.19,1.98-6.48,3.78-9.88,5.39-1.74.83-.22,3.41,1.51,2.59,3.39-1.61,6.69-3.41,9.88-5.39l-2.05-.54c11.07,19.09,22.09,38.21,33.03,57.37,10.98,19.22,21.95,38.43,32.85,57.7,2.72,4.82,5.44,9.64,8.16,14.46,1.38,2.45,2.75,4.9,4.13,7.35.93,1.66,2.69,4.46.66,6-3.61,2.74-7.29-1.96-9.05-4.57-2.92-4.34-5.66-8.81-8.3-13.33-5.3-9.08-10.15-18.41-15.08-27.69s-10.29-18.89-15.7-28.2c-11.13-19.17-22.43-38.25-33.66-57.38-1.39-2.37-2.78-4.74-4.17-7.11-.98-1.66-3.57-.16-2.59,1.51h0Z"/><path d="M381.01,281.66c1.61,7.54,3.06,15.12,4.71,22.66.41,1.88,3.31,1.09,2.89-.8-1.65-7.54-3.1-15.12-4.71-22.66-.4-1.89-3.3-1.09-2.89.8h0Z"/><path d="M403.43,283.32c-2.22,7.28-4.63,14.5-7.08,21.7-.63,1.83,2.27,2.62,2.89.8,2.46-7.2,4.87-14.42,7.08-21.7.56-1.85-2.33-2.64-2.89-.8h0Z"/><path d="M413.55,320.94c7.21-2.57,14.53-4.8,21.71-7.45,1.8-.66,1.02-3.56-.8-2.89-7.18,2.65-14.5,4.88-21.71,7.45-1.81.64-1.03,3.54.8,2.89h0Z"/><path d="M415.33,333.12c7.62-.05,15.25-.04,22.87.03,1.93.02,1.93-2.98,0-3-7.62-.07-15.25-.07-22.87-.03-1.93.01-1.93,3.01,0,3h0Z"/><path class="cls-22" d="M411.63,343.08c6.83,2.85,13.5,5.96,19.97,9.34"/><path d="M411.23,344.52c6.66,2.78,13.21,5.85,19.61,9.19,1.71.89,3.23-1.7,1.51-2.59-6.64-3.46-13.42-6.61-20.33-9.49-.75-.31-1.64.34-1.85,1.05-.25.86.3,1.53,1.05,1.85h0Z"/><path d="M373.91,347.78c-6.19,4.9-11.53,10.8-15.86,17.39-1.06,1.62,1.53,3.12,2.59,1.51,4.2-6.38,9.41-12.04,15.39-16.78.64-.5.53-1.59,0-2.12-.63-.63-1.48-.5-2.12,0h0Z"/><path d="M388.15,354.01c.32,7.61.61,15.23.61,22.85,0,1.93,3,1.93,3,0,0-7.62-.29-15.23-.61-22.85-.08-1.92-3.08-1.93-3,0h0Z"/><path d="M401.69,352.16c4.11,6.04,8.23,12.08,12.34,18.13,1.08,1.59,3.68.09,2.59-1.51-4.11-6.04-8.23-12.08-12.34-18.13-1.08-1.59-3.68-.09-2.59,1.51h0Z"/><path d="M366.28,337.1c-6.84,3.65-14.99,4.24-21.39,8.84-1.55,1.12-.06,3.72,1.51,2.59,6.37-4.58,14.55-5.2,21.39-8.84,1.7-.91.19-3.5-1.51-2.59h0Z"/><path d="M365.42,324.62c-7.67-.43-15.34-.63-23.02-.61-1.93,0-1.93,3.01,0,3,7.68-.02,15.35.18,23.02.61,1.93.11,1.92-2.89,0-3h0Z"/><path d="M348.15,307.06c6.45,3.53,12.34,7.97,18.97,11.18,1.73.84,3.25-1.75,1.51-2.59-6.63-3.21-12.52-7.65-18.97-11.18-1.69-.93-3.21,1.66-1.51,2.59h0Z"/><path d="M407.62,311.75c6.3-5.04,12.39-10.33,18.45-15.64,1.46-1.27-.67-3.39-2.12-2.12-6.07,5.31-12.16,10.6-18.45,15.64-.63.51-.53,1.59,0,2.12.63.63,1.49.51,2.12,0h0Z"/></svg>